<svg xmlns="http://www.w3.org/2000/svg" version="1.1" xmlns:xlink="http://www.w3.org/1999/xlink" width="200" height="200"><svg xmlns="http://www.w3.org/2000/svg" version="1.1" xmlns:xlink="http://www.w3.org/1999/xlink" width="200" height="200"><svg xmlns="http://www.w3.org/2000/svg" version="1.1" xmlns:xlink="http://www.w3.org/1999/xlink" viewBox="0 0 200 200"><rect width="200" height="200" fill="url('#gradient')"></rect><defs><linearGradient id="gradient" gradientTransform="rotate(299 0.5 0.5)"><stop offset="0%" stop-color="#252525"></stop><stop offset="100%" stop-color="#b1b1b1"></stop></linearGradient></defs><g><g fill="#fa7439" transform="matrix(5.783495450266709,0,0,5.783495450266709,3.906009829751298,138.3166293586202)" stroke="#fa7439" stroke-width="0.2"><path d="M5.51-16.66L5.51-14.26L4.36-14.26L4.36 1.02L5.51 1.02L5.51 3.41L1.05 3.41L1.05-16.66L5.51-16.66ZM5.77-14.26L5.77-16.66L10.22-16.66L10.22 3.41L5.77 3.41L5.77 1.02L6.93 1.02L6.93-14.26L5.77-14.26ZM18.13-11.78L18.13-8.07L21.46-8.07L21.46-5.24L18.13-5.24L18.13-1.43L15.05-1.43L15.05-5.24L11.71-5.24L11.71-8.07L15.05-8.07L15.05-11.78L18.13-11.78ZM27.46-16.66L27.46-14.26L26.31-14.26L26.31 1.02L27.46 1.02L27.46 3.41L23.01 3.41L23.01-16.66L27.46-16.66ZM27.72-14.26L27.72-16.66L32.18-16.66L32.18 3.41L27.72 3.41L27.72 1.02L28.89 1.02L28.89-14.26L27.72-14.26Z"></path></g></g></svg></svg><style>@media (prefers-color-scheme: light) { :root { filter: none; } }
@media (prefers-color-scheme: dark) { :root { filter: none; } }
</style></svg>