<svg width="1200" height="630" viewBox="0 0 1200 630" xmlns="http://www.w3.org/2000/svg"><mask id="satori_om-id"><rect x="0" y="0" width="1200" height="630" fill="#fff"/></mask><rect x="0" y="0" width="1200" height="630" fill="#eee8d5"/><mask id="satori_om-id-0"><rect x="60" y="60" width="16" height="510" fill="#fff"/></mask><path x="60" y="60" width="16" height="510" fill="#f3927e" d="M64,60 h8 a4,4 0 0 1 4,4 v502 a4,4 0 0 1 -4,4 h-8 a4,4 0 0 1 -4,-4 v-502 a4,4 0 0 1 4,-4"/><mask id="satori_om-id-1"><rect x="0" y="0" width="1200" height="630" fill="#fff"/></mask><mask id="satori_om-id-1-0"><rect x="510" y="245" width="180" height="140" fill="#fff"/></mask><mask id="satori_om-id-1-0-0"><rect x="510" y="245" width="180" height="77" fill="#fff"/></mask><mask id="satori_om-id-1-0-0-0"><rect x="510" y="245" width="180" height="77" fill="#fff"/></mask><g  ><path fill="#33312d" d="M524.0 311.9L524.0 311.9Q520.6 311.9 518.7 310.5Q516.8 309.1 515.9 306.7Q515.1 304.2 515.1 301.0L515.1 301.0L515.1 259.9L524.5 259.9L524.5 301.3Q524.5 302.9 525.1 303.6Q525.7 304.2 526.3 304.2L526.3 304.2Q526.6 304.2 526.9 304.2Q527.2 304.2 527.6 304.1L527.6 304.1L528.8 311.1Q527.9 311.4 526.7 311.6Q525.6 311.9 524.0 311.9ZM555.2 311.9L555.2 311.9Q550.8 311.9 546.9 310.3Q543.0 308.8 540.0 305.6Q537.0 302.5 535.3 297.9Q533.6 293.4 533.6 287.5L533.6 287.5Q533.6 281.6 535.3 277.0Q537.1 272.5 540.1 269.3Q543.2 266.1 547.2 264.4Q551.2 262.7 555.6 262.7L555.6 262.7Q560.2 262.7 563.7 264.6Q567.3 266.4 569.5 268.8L569.5 268.8L564.6 274.8Q562.8 273.0 560.7 272.0Q558.5 270.9 555.8 270.9L555.8 270.9Q552.2 270.9 549.4 272.8Q546.5 274.8 544.9 278.4Q543.3 282.1 543.3 287.2L543.3 287.2Q543.3 292.4 544.8 296.1Q546.4 299.7 549.1 301.7Q551.9 303.7 555.6 303.7L555.6 303.7Q558.7 303.7 561.1 302.4Q563.5 301.1 565.4 299.0L565.4 299.0L570.4 304.9Q567.5 308.4 563.7 310.1Q559.9 311.9 555.2 311.9ZM578.7 325.3L578.7 325.3Q577.1 325.3 576.0 325.1Q574.8 325.0 573.8 324.6L573.8 324.6L575.5 317.5Q576.0 317.6 576.7 317.8Q577.4 317.9 578.0 317.9L578.0 317.9Q580.8 317.9 582.4 316.4Q584.0 314.8 584.8 312.5L584.8 312.5L585.4 310.3L571.4 275.2L580.9 275.2L586.6 291.8Q587.4 294.2 588.1 296.8Q588.8 299.4 589.6 301.9L589.6 301.9L589.9 301.9Q590.5 299.4 591.2 296.8Q591.9 294.3 592.5 291.8L592.5 291.8L597.4 275.2L606.4 275.2L593.7 312.1Q592.2 316.3 590.2 319.3Q588.2 322.3 585.5 323.8Q582.8 325.3 578.7 325.3ZM626.4 311.9L626.4 311.9Q621.9 311.9 618 309.7Q614.1 307.4 611.6 303.2Q609.2 299.0 609.2 293.1L609.2 293.1Q609.2 287.1 611.6 282.9Q614.1 278.7 618 276.5Q621.9 274.3 626.4 274.3L626.4 274.3Q629.8 274.3 632.9 275.5Q636.0 276.8 638.4 279.2Q640.8 281.6 642.2 285.1Q643.6 288.6 643.6 293.1L643.6 293.1Q643.6 299.0 641.2 303.2Q638.8 307.4 634.8 309.7Q630.9 311.9 626.4 311.9ZM626.4 304.2L626.4 304.2Q628.8 304.2 630.5 302.8Q632.2 301.5 633.1 299.0Q634.0 296.5 634.0 293.1L634.0 293.1Q634.0 289.7 633.1 287.2Q632.2 284.7 630.5 283.3Q628.8 281.9 626.4 281.9L626.4 281.9Q624.0 281.9 622.3 283.3Q620.6 284.7 619.7 287.2Q618.9 289.7 618.9 293.1L618.9 293.1Q618.9 296.5 619.7 299.0Q620.6 301.5 622.3 302.8Q624.0 304.2 626.4 304.2ZM662.2 311.9L662.2 311.9Q656.4 311.9 653.7 308.1Q651.1 304.3 651.1 297.5L651.1 297.5L651.1 275.2L660.5 275.2L660.5 296.3Q660.5 300.5 661.7 302.2Q662.9 303.8 665.6 303.8L665.6 303.8Q667.8 303.8 669.4 302.8Q671.0 301.7 672.8 299.4L672.8 299.4L672.8 275.2L682.2 275.2L682.2 311L674.5 311L673.8 305.8L673.6 305.8Q671.3 308.6 668.6 310.2Q665.9 311.9 662.2 311.9Z "/></g><mask id="satori_om-id-1-0-1"><rect x="510" y="346" width="140" height="39" fill="#fff"/></mask><g  ><path fill="#605d52" d="M519.6 380.2L519.6 356.2L536.0 356.2L536.0 380.0L533.9 380.0L533.9 358.0L521.5 358.0L521.5 380.2L519.6 380.2ZM522.7 363.7L522.7 362.1L533.0 362.1L533.0 363.7L522.7 363.7ZM520.6 378.6L520.6 376.7L535.0 376.7L535.0 378.6L520.6 378.6ZM526.9 367.8L526.9 358.9L528.6 358.9L528.6 367.8L526.9 367.8ZM530.2 368.4L525.5 368.4L525.5 372.8L530.2 372.8L530.2 368.4ZM523.8 374.3L523.8 366.8L531.9 366.8L531.9 374.3L523.8 374.3ZM516.7 354.6L516.7 354.6L518.6 355.2Q517.8 357.6 516.7 359.9Q515.6 362.2 514.3 364.3Q513.0 366.4 511.6 368.0L511.6 368.0Q511.5 367.7 511.3 367.3Q511.1 366.9 510.9 366.5Q510.7 366.1 510.5 365.8L510.5 365.8Q511.7 364.4 512.9 362.6Q514.0 360.8 515.0 358.8Q516.0 356.7 516.7 354.6ZM514.3 380.3L514.3 361.5L516.3 359.5L516.3 359.5L516.3 380.3L514.3 380.3ZM550.5 355.3L550.5 355.3L552.9 355.3Q552.8 356.4 552.7 358.2Q552.6 360.0 552.2 362.3Q551.8 364.5 551.0 367.0Q550.2 369.4 548.9 371.8Q547.6 374.2 545.6 376.3Q543.5 378.4 540.6 380.0L540.6 380.0Q540.4 379.6 539.9 379.1Q539.4 378.7 538.9 378.4L538.9 378.4Q541.8 376.9 543.8 374.9Q545.7 372.9 547.0 370.6Q548.2 368.4 548.9 366.1Q549.6 363.7 550.0 361.6Q550.3 359.5 550.4 357.9Q550.5 356.3 550.5 355.3ZM550.8 356.1L552.8 355.9Q552.8 356.4 552.9 357.5Q553.0 358.7 553.3 360.4Q553.6 362.0 554.1 363.9Q554.6 365.9 555.5 367.9Q556.4 370.0 557.7 371.9Q559.1 373.8 560.9 375.5Q562.8 377.1 565.2 378.2L565.2 378.2Q564.8 378.6 564.3 379.1Q563.9 379.6 563.6 380.0L563.6 380.0Q561.1 378.8 559.2 377.0Q557.3 375.3 555.9 373.2Q554.5 371.2 553.6 369.0Q552.7 366.9 552.2 364.8Q551.6 362.7 551.3 361.0Q551.0 359.2 550.9 357.9Q550.8 356.6 550.8 356.1L550.8 356.1ZM585.6 355.4L587.2 354.7Q587.5 355.2 587.9 355.9Q588.3 356.6 588.7 357.2Q589.1 357.9 589.4 358.4L589.4 358.4L587.8 359.1Q587.6 358.5 587.2 357.9Q586.8 357.2 586.4 356.5Q586.0 355.9 585.6 355.4L585.6 355.4ZM589.2 354.6L590.8 354.0Q591.1 354.5 591.5 355.1Q592.0 355.8 592.4 356.5Q592.8 357.2 593.0 357.7L593.0 357.7L591.5 358.4Q591.0 357.5 590.4 356.4Q589.8 355.4 589.2 354.6L589.2 354.6ZM588.0 358.7L589.7 359.8Q589.5 360.1 589.5 360.4Q589.4 360.8 589.3 361.2L589.3 361.2Q589.0 362.3 588.7 363.6Q588.3 365.0 587.8 366.4Q587.3 367.8 586.6 369.1Q585.9 370.4 585.1 371.5L585.1 371.5Q583.8 373.1 582.2 374.5Q580.6 375.9 578.6 377.0Q576.6 378.2 574.1 379.0L574.1 379.0L572.2 376.9Q574.9 376.2 576.9 375.2Q578.9 374.2 580.4 372.9Q581.9 371.6 583.1 370.2L583.1 370.2Q584.1 368.9 584.8 367.3Q585.6 365.7 586.1 364.0Q586.6 362.4 586.7 361.0L586.7 361.0Q586.3 361.0 585.3 361.0Q584.2 361.0 582.7 361.0Q581.2 361.0 579.6 361.0Q578.0 361.0 576.5 361.0Q575.0 361.0 573.9 361.0Q572.8 361.0 572.4 361.0L572.4 361.0Q571.6 361.0 570.9 361.1Q570.2 361.1 569.6 361.1L569.6 361.1L569.6 358.6Q570.0 358.7 570.5 358.7Q571.0 358.8 571.5 358.8Q572.0 358.8 572.4 358.8L572.4 358.8Q572.8 358.8 573.6 358.8Q574.5 358.8 575.7 358.8Q576.9 358.8 578.2 358.8Q579.6 358.8 580.9 358.8Q582.3 358.8 583.4 358.8Q584.6 358.8 585.4 358.8Q586.2 358.8 586.5 358.8L586.5 358.8Q586.8 358.8 587.2 358.8Q587.6 358.8 588.0 358.7L588.0 358.7ZM598.1 358.8L598.1 358.8Q598.9 358.8 599.5 358.9Q600.1 358.9 600.6 358.9L600.6 358.9Q600.9 358.9 601.8 358.9Q602.7 358.9 604.0 358.9Q605.3 358.9 606.7 358.9Q608.2 358.9 609.6 358.9Q611.1 358.9 612.3 358.9Q613.6 358.9 614.4 358.9Q615.3 358.9 615.6 358.9L615.6 358.9Q616.1 358.9 616.8 358.9Q617.4 358.8 618.1 358.8L618.1 358.8Q618.1 359.3 618.0 359.9Q618.0 360.5 618.0 361.0L618.0 361.0Q618.0 361.3 618.0 362.1Q618.0 362.9 618.0 364.1Q618.0 365.3 618.0 366.6Q618.0 368.0 618.0 369.3Q618.0 370.7 618.0 371.8Q618.0 373.0 618.0 373.8Q618.0 374.6 618.0 374.8L618.0 374.8Q618.0 375.1 618.0 375.6Q618.0 376.2 618.0 376.7Q618.1 377.2 618.1 377.6Q618.1 378.1 618.1 378.2L618.1 378.2L615.7 378.2Q615.7 378.0 615.7 377.5Q615.7 377.0 615.7 376.3Q615.7 375.7 615.7 375.1L615.7 375.1Q615.7 374.9 615.7 374.0Q615.7 373.2 615.7 371.9Q615.7 370.6 615.7 369.1Q615.7 367.7 615.7 366.3Q615.7 364.8 615.7 363.7Q615.7 362.5 615.7 361.8Q615.7 361.1 615.7 361.1L615.7 361.1L600.4 361.1Q600.4 361.1 600.4 361.8Q600.4 362.5 600.4 363.6Q600.4 364.8 600.4 366.2Q600.4 367.6 600.4 369.1Q600.4 370.6 600.4 371.8Q600.4 373.1 600.4 374.0Q600.4 374.8 600.4 375.1L600.4 375.1Q600.4 375.5 600.4 375.9Q600.4 376.4 600.4 376.9Q600.4 377.3 600.5 377.7Q600.5 378.1 600.5 378.2L600.5 378.2L598.1 378.2Q598.1 378.1 598.1 377.6Q598.1 377.2 598.1 376.7Q598.1 376.2 598.1 375.7Q598.1 375.1 598.1 374.8L598.1 374.8Q598.1 374.6 598.1 373.7Q598.1 372.9 598.1 371.8Q598.1 370.6 598.1 369.2Q598.1 367.9 598.1 366.5Q598.1 365.1 598.1 364.0Q598.1 362.8 598.1 362.0Q598.1 361.2 598.1 361.0L598.1 361.0Q598.1 360.5 598.1 359.9Q598.1 359.3 598.1 358.8ZM599.3 374.4L616.6 374.4L616.6 376.6L599.3 376.6L599.3 374.4ZM641.9 356.2L643.4 355.6Q643.8 356.1 644.2 356.8Q644.6 357.4 645.0 358.1Q645.4 358.8 645.7 359.4L645.7 359.4L644.2 360.1Q643.8 359.3 643.1 358.1Q642.5 357.0 641.9 356.2L641.9 356.2ZM645.0 355.1L646.5 354.5Q646.9 355.0 647.3 355.7Q647.7 356.4 648.2 357.1Q648.6 357.8 648.9 358.3L648.9 358.3L647.3 359.0Q646.9 358.0 646.2 357.0Q645.6 355.9 645.0 355.1L645.0 355.1ZM643.4 360.1L645.3 361.2Q645.1 361.5 644.9 361.9Q644.8 362.3 644.6 362.7L644.6 362.7Q644.3 364.1 643.6 365.7Q642.9 367.4 641.9 369.1Q640.9 370.8 639.7 372.3L639.7 372.3Q637.8 374.6 635.1 376.5Q632.4 378.4 628.5 379.9L628.5 379.9L626.5 378.1Q629.1 377.3 631.1 376.3Q633.1 375.2 634.8 373.9Q636.4 372.5 637.7 371.1L637.7 371.1Q638.8 369.8 639.7 368.2Q640.6 366.7 641.2 365.1Q641.9 363.6 642.1 362.3L642.1 362.3L631.8 362.3L632.7 360.3Q633.0 360.3 633.9 360.3Q634.9 360.3 636.0 360.3Q637.2 360.3 638.4 360.3Q639.6 360.3 640.5 360.3Q641.3 360.3 641.6 360.3L641.6 360.3Q642.2 360.3 642.6 360.2Q643.1 360.2 643.4 360.1L643.4 360.1ZM633.3 356.1L635.9 356.9Q635.6 357.5 635.2 358.1Q634.9 358.7 634.7 359.1L634.7 359.1Q633.8 360.7 632.6 362.4Q631.3 364.2 629.6 366.0Q627.8 367.7 625.6 369.2L625.6 369.2L623.6 367.8Q625.4 366.7 626.9 365.4Q628.3 364.2 629.4 362.9Q630.5 361.6 631.2 360.4Q632.0 359.2 632.4 358.3L632.4 358.3Q632.7 358.0 632.9 357.3Q633.2 356.6 633.3 356.1L633.3 356.1Z "/></g><mask id="satori_om-id-1-1"><rect x="1079" y="535" width="61" height="35" fill="#fff"/></mask><mask id="satori_om-id-1-1-0"><rect x="1079" y="535" width="61" height="35" fill="#fff"/></mask><g  ><path fill="#605d52" d="M1083.5 563.3L1083.5 563.3Q1082.7 563.3 1082.2 563.0Q1081.7 562.6 1081.4 562.0Q1081.2 561.3 1081.2 560.4L1081.2 560.4L1081.2 543.9L1083.4 543.9L1083.4 560.6Q1083.4 561.1 1083.6 561.3Q1083.8 561.5 1084.0 561.5L1084.0 561.5Q1084.1 561.5 1084.2 561.5Q1084.3 561.5 1084.5 561.4L1084.5 561.4L1084.8 563.1Q1084.5 563.2 1084.3 563.3Q1084.0 563.3 1083.5 563.3ZM1093.2 563.3L1093.2 563.3Q1091.4 563.3 1090.1 562.5Q1088.7 561.7 1087.9 560.2Q1087.1 558.7 1087.1 556.5L1087.1 556.5Q1087.1 554.3 1087.9 552.8Q1088.8 551.3 1090.2 550.4Q1091.7 549.6 1093.3 549.6L1093.3 549.6Q1094.6 549.6 1095.5 550.1Q1096.4 550.5 1097.1 551.2L1097.1 551.2L1096.0 552.6Q1095.5 552.1 1094.8 551.8Q1094.2 551.5 1093.4 551.5L1093.4 551.5Q1092.2 551.5 1091.3 552.1Q1090.4 552.7 1089.8 553.9Q1089.3 555.0 1089.3 556.5L1089.3 556.5Q1089.3 558.0 1089.8 559.1Q1090.4 560.2 1091.3 560.9Q1092.2 561.5 1093.4 561.5L1093.4 561.5Q1094.3 561.5 1095.0 561.1Q1095.8 560.7 1096.4 560.2L1096.4 560.2L1097.4 561.7Q1096.5 562.4 1095.4 562.9Q1094.3 563.3 1093.2 563.3ZM1100.6 568.6L1100.6 568.6Q1100.1 568.6 1099.7 568.5Q1099.4 568.5 1099.0 568.4L1099.0 568.4L1099.5 566.6Q1099.7 566.7 1099.9 566.7Q1100.2 566.8 1100.5 566.8L1100.5 566.8Q1101.6 566.8 1102.3 566.0Q1103 565.2 1103.4 564.0L1103.4 564.0L1103.7 563.0L1098.5 550.0L1100.7 550.0L1103.4 557.2Q1103.7 558.1 1104.0 559.0Q1104.3 560.0 1104.7 560.9L1104.7 560.9L1104.8 560.9Q1105.1 560.0 1105.3 559.0Q1105.6 558.1 1105.9 557.2L1105.9 557.2L1108.2 550.0L1110.3 550.0L1105.4 564.1Q1105.0 565.4 1104.3 566.4Q1103.7 567.4 1102.8 568.0Q1101.9 568.6 1100.6 568.6ZM1117.8 563.3L1117.8 563.3Q1116.2 563.3 1114.8 562.5Q1113.4 561.7 1112.6 560.2Q1111.7 558.7 1111.7 556.5L1111.7 556.5Q1111.7 554.3 1112.6 552.8Q1113.4 551.3 1114.8 550.4Q1116.2 549.6 1117.8 549.6L1117.8 549.6Q1119.0 549.6 1120.1 550.1Q1121.1 550.5 1122.0 551.4Q1122.8 552.3 1123.3 553.6Q1123.8 554.9 1123.8 556.5L1123.8 556.5Q1123.8 558.7 1122.9 560.2Q1122.1 561.7 1120.7 562.5Q1119.4 563.3 1117.8 563.3ZM1117.8 561.5L1117.8 561.5Q1118.9 561.5 1119.7 560.9Q1120.6 560.2 1121.1 559.1Q1121.6 558.0 1121.6 556.5L1121.6 556.5Q1121.6 555.0 1121.1 553.9Q1120.6 552.7 1119.7 552.1Q1118.9 551.5 1117.8 551.5L1117.8 551.5Q1116.6 551.5 1115.8 552.1Q1114.9 552.7 1114.5 553.9Q1114.0 555.0 1114.0 556.5L1114.0 556.5Q1114.0 558.0 1114.5 559.1Q1114.9 560.2 1115.8 560.9Q1116.6 561.5 1117.8 561.5ZM1131.1 563.3L1131.1 563.3Q1129.0 563.3 1128.0 562.0Q1127.0 560.7 1127.0 558.2L1127.0 558.2L1127.0 550.0L1129.3 550.0L1129.3 558.0Q1129.3 559.8 1129.8 560.6Q1130.4 561.4 1131.7 561.4L1131.7 561.4Q1132.7 561.4 1133.5 560.9Q1134.3 560.4 1135.2 559.2L1135.2 559.2L1135.2 550.0L1137.4 550.0L1137.4 563L1135.6 563L1135.4 561.0L1135.4 561.0Q1134.4 562.0 1133.4 562.7Q1132.4 563.3 1131.1 563.3Z "/></g></svg>